<svg id="eu98NbU0Of51" xmlns="http://www.w3.org/2000/svg" xmlns:xlink="http://www.w3.org/1999/xlink" viewBox="0 0 512 512" shape-rendering="geometricPrecision" text-rendering="geometricPrecision"><style><![CDATA[#eu98NbU0Of52_tr {animation: eu98NbU0Of52_tr__tr 4000ms linear infinite normal forwards}@keyframes eu98NbU0Of52_tr__tr { 0% {transform: translate(256px,256px) rotate(0deg)} 25% {transform: translate(256px,256px) rotate(90deg)} 50% {transform: translate(256px,256px) rotate(180deg)} 75% {transform: translate(256px,256px) rotate(270deg)} 100% {transform: translate(256px,256px) rotate(360deg)}}]]></style><g id="eu98NbU0Of52_tr" transform="translate(256,256) rotate(0)"><g id="eu98NbU0Of52" transform="scale(0.914209,0.302277) translate(-256,-256)"><g id="eu98NbU0Of53"><path id="eu98NbU0Of54" d="M463.2,512L48.8,512C21.8,512,0,490.2,0,463.2L0,48.8C0,21.8,21.8,0,48.8,0L463.3,0C490.2,0,512,21.8,512,48.8L512,463.3C512,490.2,490.2,512,463.2,512Z" fill="rgb(71,148,132)" stroke="none" stroke-width="1"/><path id="eu98NbU0Of55" d="M472,40L40,40L40,472L80,512L463.2,512C490.1,512,512,490.2,512,463.2L512,80L472,40Z" opacity="0.1" fill="rgb(0,0,0)" stroke="none" stroke-width="1"/><rect id="eu98NbU0Of56" width="432" height="432" rx="0" ry="0" transform="matrix(0 1 -1 0 471.5 40)" fill="rgb(59,60,101)" stroke="none" stroke-width="1"/></g><g id="eu98NbU0Of57"><g id="eu98NbU0Of58"><g id="eu98NbU0Of59"><g id="eu98NbU0Of510"><g id="eu98NbU0Of511"><polygon id="eu98NbU0Of512" points="370.3,155.8 300.6,155.8 300.6,86.1 310.8,86.1 310.8,145.7 370.3,145.7" fill="rgb(255,255,255)" stroke="none" stroke-width="1"/></g><g id="eu98NbU0Of513"><polygon id="eu98NbU0Of514" points="375.4,431 103.3,431 103.3,81 310.6,81 375.4,148.7 375.4,256 365.2,256 365.2,152.8 306.3,91.2 113.5,91.2 113.5,420.8 365.2,420.8 365.2,396.8 375.4,396.8" fill="rgb(255,255,255)" stroke="none" stroke-width="1"/></g></g><g id="eu98NbU0Of515"><g id="eu98NbU0Of516"><rect id="eu98NbU0Of517" width="138" height="10.2" rx="0" ry="0" transform="matrix(1 0 0 1 145.9 154.8)" fill="rgb(255,255,255)" stroke="none" stroke-width="1"/></g><g id="eu98NbU0Of518"><rect id="eu98NbU0Of519" width="90.9" height="10.2" rx="0" ry="0" transform="matrix(1 0 0 1 145.9 184.8)" fill="rgb(255,255,255)" stroke="none" stroke-width="1"/></g><g id="eu98NbU0Of520"><rect id="eu98NbU0Of521" width="186.9" height="10.2" rx="0" ry="0" transform="matrix(1 0 0 1 145.9 214.7)" fill="rgb(255,255,255)" stroke="none" stroke-width="1"/></g><g id="eu98NbU0Of522"><rect id="eu98NbU0Of523" width="186.9" height="10.2" rx="0" ry="0" transform="matrix(1 0 0 1 145.9 244.7)" fill="rgb(255,255,255)" stroke="none" stroke-width="1"/></g></g></g><g id="eu98NbU0Of524"><path id="eu98NbU0Of525" d="M370.3,409.3L315.5,330L338.9,330L338.9,250.9L401.8,250.9L401.8,330L425.2,330L370.3,409.3ZM334.9,340.2L370.4,391.5L405.9,340.2L391.7,340.2L391.7,261.1L349.2,261.1L349.2,340.2L334.9,340.2Z" fill="rgb(255,255,255)" stroke="none" stroke-width="1"/></g></g><path id="eu98NbU0Of526" d="M274.2,306.6L86.8,306.6L86.8,387.1L274.2,387.1L234.3,346.9L274.2,306.6ZM150.3,361.8C148.1,363.5,145.2,364.3,141.6,364.3C138.1,364.3,135.1,363.4,132.6,361.5C130,359.7,128.8,357.1,128.9,353.7L128.9,353.6L134.4,353.6C134.4,355.6,135.1,357.2,136.5,358.2C137.9,359.2,139.6,359.8,141.7,359.8C143.7,359.8,145.3,359.4,146.4,358.5C147.5,357.7,148.1,356.5,148.1,355.1C148.1,353.7,147.6,352.5,146.6,351.6C145.6,350.7,143.8,349.9,141.3,349.2C137.6,348.2,134.8,346.9,132.8,345.2C130.8,343.6,129.8,341.4,129.8,338.8C129.8,336.1,130.9,333.8,133.1,332C135.3,330.2,138.1,329.3,141.5,329.3C145.2,329.3,148.1,330.3,150.3,332.3C152.5,334.3,153.6,336.7,153.5,339.6L153.5,339.7L148,339.7C148,337.9,147.4,336.5,146.2,335.4C145,334.3,143.4,333.8,141.4,333.8C139.5,333.8,138,334.3,137,335.2C136,336.1,135.4,337.3,135.4,338.7C135.4,340,136,341.1,137.1,341.9C138.2,342.7,140.1,343.6,142.8,344.3C146.4,345.3,149.1,346.7,151,348.4C152.9,350.1,153.8,352.3,153.8,355C153.6,357.9,152.5,360.1,150.3,361.8ZM175.1,363.8L169.7,363.8L157.6,329.8L163.7,329.8L171.8,354.6L172.4,357.1L172.5,357.1L173.1,354.7L181.2,329.9L187.3,329.9L175.1,363.8ZM217.5,359.2C216.6,360.5,215.1,361.7,213,362.7C211,363.7,208.3,364.3,205.1,364.3C201.1,364.3,197.8,363,195.2,360.4C192.6,357.8,191.3,354.5,191.3,350.3L191.3,343.2C191.3,339.1,192.6,335.7,195.1,333.1C197.6,330.5,200.8,329.2,204.8,329.2C208.8,329.2,211.8,330.2,214.1,332.2C216.3,334.2,217.4,336.8,217.3,340L217.2,340.1L211.8,340.1C211.8,338.2,211.2,336.6,210,335.5C208.8,334.3,207.1,333.7,204.9,333.7C202.5,333.7,200.7,334.6,199.2,336.3C197.8,338.1,197,340.3,197,343L197,350.1C197,352.8,197.8,355.1,199.3,356.9C200.8,358.7,202.8,359.6,205.2,359.6C207,359.6,208.5,359.4,209.5,359C210.6,358.6,211.4,358.1,211.9,357.5L211.9,350.5L204.8,350.5L204.8,346.2L217.6,346.2L217.6,359.2Z" transform="matrix(1 0 0 1 0 6.308419)" fill="rgb(247,255,163)" stroke="none" stroke-width="1"/></g></g></g></svg>